<svg width="428" height="140" viewBox="0 0 428 140" fill="none" xmlns="http://www.w3.org/2000/svg">
<g clip-path="url(#clip0)">
<path d="M94.4431 52.5081C90.8231 52.5081 87.5264 53.9899 85.1992 56.3093C82.8074 58.6931 81.3853 61.9144 81.3853 65.5223H102.653C106.273 65.5223 109.57 64.0405 111.897 61.7211C114.288 59.3373 115.711 56.116 115.711 52.5081H94.4431Z" fill="white"/>
<path d="M174.73 66.6176C175.893 69.0658 176.475 71.9006 176.475 75.2508C176.475 78.3433 175.893 81.2425 174.665 83.9485C173.437 86.6544 171.756 89.1026 169.623 91.1643C167.425 93.2904 164.839 94.9011 161.866 96.1252C158.892 97.3493 155.595 97.9292 152.04 97.9292C149.583 97.9292 147.192 97.607 144.865 96.9628C142.537 96.3185 140.34 95.3521 138.336 94.0635C136.72 93.0327 135.233 91.873 133.875 90.5845C133.811 90.5201 133.811 90.52 133.746 90.4556L118.038 76.2172C120.623 73.3824 124.179 71.965 127.734 71.965C130.902 71.965 134.005 73.0603 136.526 75.3797L142.343 80.6627L142.408 80.7271C142.537 80.856 142.861 81.1781 143.313 81.5647C144.606 82.6599 147.127 84.3995 150.23 84.9793C150.812 85.0437 151.393 85.1082 152.04 85.1082C153.462 85.1082 154.82 84.9149 156.242 84.4639C157.082 84.2062 157.922 83.8841 158.633 83.4331C158.633 83.4331 158.698 83.3686 158.763 83.3686C158.957 83.2398 159.086 83.1754 159.28 83.0465C159.474 82.9176 159.732 82.7244 159.926 82.5955C161.025 81.758 161.866 80.7271 162.577 79.503C163.223 78.2789 163.611 76.8615 163.611 75.2508C163.611 73.9623 163.417 72.9315 163.029 72.0295C162.641 71.1275 161.995 70.2899 161.025 69.5812C160.056 68.8081 158.763 68.0994 157.211 67.3907C155.595 66.682 153.591 65.9089 151.2 65.1358C148.678 64.2982 146.222 63.2674 143.83 62.1721C141.374 61.0769 139.241 59.7239 137.366 58.1132C135.491 56.5025 133.94 54.6342 132.776 52.3792C131.613 50.1243 131.031 47.4183 131.031 44.2614C131.031 41.491 131.677 38.9784 132.906 36.5946C134.198 34.2108 135.815 32.2135 137.883 30.474C139.952 28.7345 142.279 27.3815 144.929 26.4151C147.58 25.4487 150.23 24.9333 152.945 24.9333C155.725 24.9333 158.246 25.4487 160.508 26.4151C162.771 27.3815 164.775 28.5412 166.391 29.8297C167.425 30.6029 168.33 31.376 169.106 32.0847C169.17 32.1491 169.17 32.1491 169.235 32.2135L184.878 46.3875C182.293 49.2223 178.737 50.6397 175.182 50.6397C172.015 50.6397 168.912 49.5444 166.391 47.2251L159.021 40.5891C158.052 39.6871 156.953 38.9784 155.789 38.3985C154.884 37.9476 153.915 37.6898 152.88 37.6898C151.135 37.6898 149.648 37.9476 148.485 38.463C147.321 38.9784 146.416 39.5582 145.705 40.2669C144.994 40.9756 144.541 41.6843 144.218 42.4575C143.96 43.1661 143.83 43.8104 143.83 44.2614C143.83 45.5499 144.153 46.6452 144.865 47.5472C145.511 48.4492 146.416 49.2223 147.515 49.8666C148.614 50.5108 149.842 51.0907 151.2 51.6061C152.557 52.1215 153.979 52.5725 155.401 53.0235C158.116 53.9255 160.767 54.9563 163.288 56.116C165.809 57.2757 168.071 58.7575 170.075 60.4326C171.95 62.1077 173.501 64.1694 174.73 66.6176Z" fill="white"/>
<path d="M143.313 81.5647C142.796 81.1781 142.537 80.856 142.408 80.7271L143.313 81.5647Z" fill="white"/>
<path d="M252.883 56.567V140C249.198 140 245.837 138.518 243.38 136.07C240.924 133.622 239.437 130.272 239.437 126.599V56.567C239.437 55.214 239.372 53.9254 239.243 52.7013C239.243 52.4436 239.178 52.1859 239.178 51.8638C239.178 51.0907 238.984 49.1578 238.144 46.9673V46.9029C236.528 42.7796 232.52 37.8187 222.501 37.8187C214.162 37.8187 209.96 41.2333 207.762 44.7768C205.564 48.3847 205.499 52.0571 205.499 52.1859V96.8983C201.815 96.8983 198.453 95.4165 195.997 92.9682C193.541 90.52 192.054 87.1698 192.054 83.4975V0C195.738 0 199.1 1.48182 201.556 3.93005C204.013 6.37828 205.499 9.72849 205.499 13.4008V29.8297C209.249 26.8661 214.679 24.9333 222.436 24.9333C223.082 24.9333 223.729 24.9333 224.375 24.9977C233.361 25.2554 239.502 27.9613 243.703 31.5693C243.703 31.5693 243.703 31.5693 243.768 31.6337C244.414 32.2135 244.996 32.8578 245.578 33.5665C247.905 36.3369 249.715 39.6226 251.008 43.5527C251.913 46.3231 252.495 49.2867 252.753 52.5081C252.818 53.7322 252.883 55.1496 252.883 56.567Z" fill="white"/>
<path d="M336.53 47.225C334.591 42.7796 332.005 38.9139 328.644 35.5637C325.347 32.278 321.404 29.6364 316.944 27.7036C312.483 25.7708 307.764 24.8044 302.722 24.8044C297.68 24.8044 292.961 25.7708 288.501 27.7036C284.04 29.6364 280.162 32.2135 276.801 35.5637C273.439 38.9139 270.853 42.7796 268.914 47.225C266.975 51.6705 266.005 56.3737 266.005 61.399C266.005 66.4243 266.975 71.1275 268.914 75.5729C270.853 80.0184 273.439 83.884 276.801 87.2342C280.097 90.52 284.04 93.1615 288.501 95.0943C292.961 97.0271 297.68 97.9935 302.722 97.9935C307.764 97.9935 312.483 97.0271 316.944 95.0943C321.404 93.1615 325.283 90.5844 328.644 87.2342C331.941 83.9484 334.591 80.0184 336.53 75.5729C338.47 71.1275 339.439 66.4243 339.439 61.399C339.439 56.4381 338.47 51.6705 336.53 47.225ZM324.442 70.5476C323.214 73.3824 321.533 75.8951 319.4 77.9567C317.267 80.0184 314.81 81.7579 311.966 82.982C309.122 84.2062 306.084 84.8504 302.787 84.8504C299.555 84.8504 296.452 84.2062 293.608 82.982C290.763 81.7579 288.242 80.0828 286.109 77.9567C283.976 75.8306 282.295 73.3824 281.067 70.5476C279.839 67.7128 279.192 64.6848 279.192 61.399C279.192 58.1776 279.839 55.0851 281.067 52.2503C282.295 49.4155 283.976 46.9029 286.109 44.8412C288.242 42.7151 290.699 41.04 293.608 39.8159C296.452 38.5918 299.49 37.9475 302.787 37.9475C306.019 37.9475 309.122 38.5918 311.966 39.8159C314.81 41.04 317.332 42.7151 319.4 44.8412C321.469 46.9673 323.214 49.4155 324.442 52.2503C325.67 55.0851 326.317 58.1132 326.317 61.399C326.317 64.6848 325.735 67.7128 324.442 70.5476Z" fill="white"/>
<path d="M425.091 47.225C423.152 42.7796 420.566 38.9139 417.205 35.5637C413.843 32.278 409.965 29.6364 405.504 27.7036C401.044 25.7708 396.325 24.8044 391.283 24.8044C386.241 24.8044 381.522 25.7708 377.061 27.7036C373.635 29.1855 370.533 31.1183 367.753 33.4376C366.913 34.0819 366.137 34.855 365.426 35.5637C362.129 38.9139 359.479 42.7796 357.539 47.225C355.6 51.6705 354.63 56.3737 354.63 61.399C354.63 66.4243 355.6 71.1275 357.539 75.5729C359.479 80.0184 362.064 83.884 365.426 87.2342C366.201 88.0073 366.977 88.716 367.753 89.3603C370.533 91.6797 373.635 93.5481 377.061 95.0943C381.522 97.0271 386.241 97.9935 391.283 97.9935C396.325 97.9935 401.044 97.0271 405.504 95.0943C409.965 93.1615 413.843 90.5844 417.205 87.2342C420.501 83.9484 423.152 80.0184 425.091 75.5729C427.03 71.1275 428 66.4243 428 61.399C428 56.4381 427.03 51.6705 425.091 47.225ZM413.003 70.5476C411.775 73.3824 410.094 75.8951 407.961 77.9567C405.828 80.0184 403.371 81.7579 400.527 82.982C397.683 84.2062 394.644 84.8504 391.348 84.8504C388.115 84.8504 385.013 84.2062 382.168 82.982C379.324 81.7579 376.803 80.0828 374.67 77.9567C372.536 75.8306 370.856 73.3824 369.628 70.5476C368.464 67.9705 367.882 65.1357 367.753 62.2365C367.753 61.9788 367.753 61.7211 367.753 61.399C367.753 61.1413 367.753 60.8836 367.753 60.5614C367.882 57.5978 368.464 54.8274 369.628 52.2503C370.856 49.4155 372.536 46.9029 374.67 44.8412C376.803 42.7151 379.259 41.04 382.168 39.8159C385.013 38.5918 388.051 37.9475 391.348 37.9475C394.58 37.9475 397.683 38.5918 400.527 39.8159C403.371 41.04 405.892 42.7151 407.961 44.8412C410.029 46.9673 411.775 49.4155 413.003 52.2503C414.231 55.0851 414.878 58.1132 414.878 61.399C414.878 64.6848 414.296 67.7128 413.003 70.5476Z" fill="white"/>
<path d="M367.818 0V126.599C367.818 134.008 361.806 140 354.372 140V13.4008C354.372 5.99172 360.384 0 367.818 0Z" fill="white"/>
<path d="M72.2707 53.6678C72.206 53.0235 71.3657 49.7377 70.9778 48.7069C70.0082 46.1298 68.7799 43.6816 67.2285 41.4266C64.966 38.0764 62.3157 35.1772 59.2128 32.7934C56.11 30.3452 52.6192 28.4123 48.7407 27.0594C44.8621 25.642 40.8543 24.9333 36.6525 24.9333C31.6103 24.9333 26.8914 25.8997 22.4311 27.8325C17.9707 29.7653 14.0921 32.3424 10.7307 35.6926C7.36928 39.0428 4.78357 42.9084 2.84429 47.3539C0.905002 51.7994 -0.06464 56.5026 -0.06464 61.5279C-0.06464 66.5532 0.905002 71.2564 2.84429 75.7018C4.78357 80.1473 7.36928 84.0129 10.7307 87.3631C14.0275 90.6489 17.9707 93.2904 22.4311 95.2232C25.5986 96.5762 28.96 97.4782 32.4507 97.8647C33.8082 98.058 35.2303 98.1224 36.6525 98.1224C42.0178 98.1224 46.9307 97.0916 51.5203 94.9655C53.5242 94.0635 55.3989 92.9683 57.2089 91.7442L57.9846 91.2287C59.4067 90.1979 60.7642 89.1027 62.0571 87.8141C62.5742 87.3631 62.9621 86.7833 63.3499 86.2034C66.0649 81.8868 66.1296 76.2172 63.0267 71.7718L51.2617 79.954C49.0639 81.5002 46.7367 82.7888 44.2157 83.6908C43.6339 83.8841 43.1167 84.0773 42.7289 84.2062C40.7896 84.7216 38.7857 84.9793 36.7171 84.9793C33.8728 84.9793 31.0932 84.4639 28.5075 83.4975C25.8571 82.5311 23.53 81.1781 21.4614 79.4386C19.3928 77.6991 17.6475 75.6374 16.2253 73.318C14.8032 70.9986 13.8982 68.4216 13.5103 65.6512H72.3999C72.3353 65.5223 73.0464 59.1441 72.2707 53.6678ZM14.9325 52.5081C15.5789 50.8974 16.4193 49.4156 17.3889 47.9982C18.8111 45.9365 20.4918 44.197 22.4957 42.6507C24.435 41.1689 26.6328 40.0092 29.0893 39.1717C31.5457 38.3341 34.0668 37.8831 36.7171 37.8831C39.1735 37.8831 41.5007 38.2697 43.7632 38.9784C46.0257 39.6871 48.0942 40.7179 49.9689 42.0065C51.8435 43.295 53.5242 44.8413 54.9464 46.5808C56.3685 48.3847 57.5967 50.3176 58.5017 52.4436H14.9325V52.5081Z" fill="white"/>
<path d="M51.5203 94.8366C53.5242 93.9347 55.3989 92.8394 57.2089 91.6153L34.6485 107.336C32.58 104.436 31.9335 100.957 32.4507 97.6714C33.8082 97.8647 35.2303 97.9292 36.6525 97.9292C42.0178 97.9292 46.9307 96.8983 51.5203 94.8366Z" fill="white"/>
</g>
<defs>
<clipPath id="clip0">
<rect width="428" height="140" fill="white"/>
</clipPath>
</defs>
</svg>
