<svg width="12" height="13" viewBox="0 0 12 13" fill="none" xmlns="http://www.w3.org/2000/svg">
<path fill-rule="evenodd" clip-rule="evenodd" d="M3.40396 1.73201C3.68796 1.83251 3.88446 2.02551 4.01696 2.29301C4.13346 2.53051 4.22346 2.78051 4.36096 3.00801C4.40796 3.08551 4.46296 3.15851 4.51246 3.23401C4.53596 3.27151 4.56046 3.27551 4.59746 3.25351C4.61946 3.24001 4.64546 3.23101 4.67096 3.22201C4.69296 3.21351 4.70096 3.20351 4.69146 3.17801C4.56296 2.83201 4.53996 2.46551 4.47046 2.10651C4.42243 1.84534 4.32117 1.59685 4.17296 1.37651C4.16696 1.36751 4.16296 1.35751 4.15096 1.33351C4.40196 1.46301 4.57296 1.64651 4.67796 1.89151C4.77646 2.12201 4.83096 2.36701 4.90496 2.60501C4.94896 2.74351 5.00646 2.87601 5.06846 3.00651C5.09196 3.05851 5.11946 3.07251 5.17546 3.05601C5.28246 3.02451 5.27996 3.02751 5.26396 2.91151C5.24197 2.74372 5.23045 2.57473 5.22946 2.40551C5.22696 2.10851 5.23446 1.81201 5.17246 1.51801C5.13909 1.37146 5.09171 1.22847 5.03096 1.09101C5.26696 1.26701 5.39546 1.48901 5.46446 1.74801C5.53046 1.99951 5.55496 2.25901 5.59746 2.51551C5.61896 2.64451 5.64896 2.77001 5.68446 2.89501C5.69746 2.94551 5.71896 2.96601 5.76996 2.95451C5.77796 2.95251 5.78446 2.95251 5.79196 2.95251C5.89146 2.94351 5.89246 2.94351 5.89246 2.84401C5.88996 2.54951 5.96396 2.26651 6.03296 1.98301C6.10946 1.67251 6.13796 1.35951 6.08796 1.04201C6.08646 1.03101 6.08746 1.02001 6.08746 0.996506C6.25446 1.20201 6.32746 1.42801 6.33446 1.67701C6.34196 1.90801 6.31446 2.13801 6.29696 2.36701C6.28561 2.54097 6.28878 2.71557 6.30646 2.88901C6.31496 2.97651 6.38596 2.94051 6.43096 2.95251C6.48546 2.96801 6.47996 2.92451 6.48546 2.89151C6.52896 2.59301 6.64196 2.31601 6.75546 2.03801C6.86146 1.77801 6.94146 1.51151 6.93546 1.22651C6.93546 1.17001 6.92996 1.11451 6.92646 1.04501C7.00746 1.15251 7.05246 1.26451 7.08346 1.38251C7.15196 1.64401 7.11096 1.90251 7.04996 2.16001C6.99846 2.37701 6.92996 2.59001 6.90196 2.81151C6.89546 2.85801 6.89546 2.90451 6.88746 2.95001C6.87746 3.00301 6.89296 3.02301 6.94646 3.03401C7.06096 3.05601 7.06196 3.06051 7.10296 2.94651C7.19046 2.69751 7.32596 2.47301 7.46246 2.24851C7.58446 2.04801 7.70696 1.84601 7.77096 1.61601C7.80146 1.50451 7.81946 1.39151 7.82396 1.25851C7.89396 1.37001 7.92496 1.47801 7.93646 1.59151C7.95796 1.78101 7.91246 1.96101 7.84446 2.13701C7.74246 2.40151 7.60596 2.65251 7.52346 2.92551C7.50196 2.99401 7.48696 3.06301 7.46746 3.13151C7.45596 3.17451 7.46896 3.19651 7.51246 3.21301C7.61396 3.25001 7.61146 3.25301 7.66296 3.15351C7.80796 2.87051 8.01546 2.63501 8.22196 2.39901C8.35596 2.24751 8.48446 2.09401 8.56696 1.90701C8.60696 1.81451 8.63496 1.71801 8.65196 1.60301C8.69796 1.71701 8.70346 1.82301 8.69896 1.92801C8.68846 2.14351 8.60546 2.33701 8.49896 2.52151C8.35696 2.76701 8.18646 2.99701 8.06646 3.25501C8.04446 3.30251 8.02846 3.35051 8.00646 3.39751C7.98846 3.43451 7.99896 3.45301 8.03396 3.47301C8.12096 3.52501 8.12096 3.52751 8.17896 3.44651C8.37246 3.17451 8.63346 2.97401 8.88546 2.76201C9.07346 2.60351 9.25396 2.43751 9.35946 2.20801C9.38096 2.16251 9.39796 2.11501 9.42246 2.05651C9.46596 2.38751 9.36796 2.66301 9.18096 2.91451C9.01146 3.14051 8.80696 3.33801 8.64546 3.56951C8.60055 3.63396 8.55769 3.69983 8.51696 3.76701C8.47996 3.82501 8.54446 3.83251 8.56646 3.86101C8.58746 3.88901 8.60746 3.88251 8.63096 3.85851C8.83096 3.65201 9.06996 3.49801 9.30796 3.34251C9.51996 3.20401 9.73396 3.06901 9.90946 2.88451C9.97846 2.81201 10.0385 2.73301 10.0985 2.65151C10.0985 2.82001 10.0535 2.97451 9.97296 3.11951C9.84546 3.34951 9.64946 3.51751 9.45146 3.68251C9.27396 3.83101 9.09446 3.97501 8.94046 4.14901C8.89946 4.19451 8.92196 4.21651 8.94946 4.25151C8.97946 4.28851 8.99896 4.29801 9.04296 4.26601C9.22196 4.13451 9.42346 4.04351 9.62646 3.95751C10.008 3.79501 10.3935 3.64201 10.697 3.30901C10.6892 3.46712 10.6343 3.6193 10.5395 3.74601C10.4245 3.90101 10.269 4.00801 10.108 4.10651C9.84196 4.26901 9.56446 4.41201 9.32096 4.60651C9.26446 4.65101 9.26246 4.68401 9.30496 4.73601C9.32296 4.75751 9.33346 4.77001 9.36296 4.75651C9.68746 4.60401 10.0385 4.53901 10.3815 4.44801C10.612 4.38651 10.8375 4.31351 11.034 4.17051C11.075 4.14051 11.113 4.10651 11.154 4.07301C11.1715 4.17901 11.106 4.33351 11.0025 4.43701C10.859 4.58401 10.6775 4.67051 10.491 4.74851C10.1955 4.87351 9.89146 4.97651 9.60546 5.12351C9.53196 5.16101 9.52296 5.20501 9.57496 5.27401C9.58596 5.28951 9.59696 5.28951 9.61096 5.28601C10.0545 5.17751 10.511 5.17551 10.9585 5.09551C11.1533 5.0644 11.34 4.99507 11.508 4.89151C11.4895 5.04001 11.4065 5.13251 11.3005 5.20801C11.143 5.32201 10.9585 5.37801 10.774 5.42801C10.452 5.51401 10.125 5.57601 9.80696 5.67801C9.72896 5.70351 9.70746 5.77301 9.75346 5.84001C9.76396 5.85651 9.77846 5.85351 9.79196 5.85301C10.1575 5.83451 10.522 5.87951 10.8865 5.89651C11.1675 5.90951 11.4455 5.89851 11.716 5.79251C11.674 5.89901 11.541 6.01301 11.3995 6.07451C11.1855 6.16601 10.9595 6.18701 10.7315 6.20701C10.4555 6.23051 10.1785 6.23801 9.90396 6.28051C9.87246 6.28601 9.81896 6.27301 9.83096 6.33451C9.83946 6.38201 9.81296 6.44801 9.90546 6.45501C10.1775 6.47401 10.442 6.53901 10.7095 6.59201C11.068 6.66251 11.4255 6.73601 11.8035 6.66501C11.746 6.79551 11.642 6.85001 11.524 6.88301C11.2795 6.94951 11.0315 6.91951 10.784 6.90451C10.493 6.88751 10.2015 6.85751 9.90996 6.86901C9.87346 6.87101 9.83146 6.86251 9.83846 6.92151C9.84446 6.96901 9.79546 7.02851 9.89296 7.04951C10.1905 7.11501 10.4715 7.234 10.7565 7.33801C11.0595 7.4485 11.367 7.53751 11.694 7.53001C11.701 7.53001 11.707 7.53351 11.723 7.53901C11.6231 7.63642 11.4925 7.69616 11.3535 7.70801C11.055 7.74501 10.7685 7.67451 10.4805 7.61401C10.268 7.56801 10.054 7.52201 9.84096 7.47851C9.81046 7.47301 9.76496 7.44551 9.75196 7.50651C9.74296 7.55451 9.71596 7.59651 9.79146 7.62901C10.081 7.75151 10.3475 7.9175 10.622 8.071C10.82 8.1825 11.0195 8.29251 11.238 8.36201C11.327 8.39051 11.418 8.40601 11.52 8.41951C11.4532 8.47672 11.3701 8.51137 11.2825 8.51851C11.0735 8.54551 10.879 8.48851 10.686 8.42101C10.3855 8.31701 10.0965 8.18051 9.79246 8.08551C9.74096 8.06901 9.68746 8.05901 9.63696 8.04051C9.59846 8.02601 9.57696 8.04051 9.57546 8.07501C9.57346 8.11551 9.49746 8.15701 9.56096 8.19351C9.98246 8.43801 10.342 8.76951 10.74 9.04701C10.8715 9.13901 11.01 9.21651 11.181 9.24351C11.0545 9.32801 10.927 9.31851 10.798 9.28951C10.5255 9.22851 10.293 9.0745 10.0575 8.93851C9.83996 8.81551 9.63046 8.67901 9.40296 8.57401C9.35946 8.55451 9.33146 8.54851 9.31196 8.59951C9.29696 8.64051 9.23846 8.668 9.30946 8.72351C9.60696 8.95251 9.83996 9.24651 10.0925 9.52001C10.24 9.67801 10.385 9.84001 10.5825 9.93751C10.622 9.95751 10.663 9.9725 10.703 9.991C10.631 10.0465 10.4275 10.0195 10.297 9.96651C10.1435 9.90034 10.0002 9.81262 9.87146 9.70601C9.62496 9.5155 9.39946 9.29951 9.14696 9.116C9.13196 9.10501 9.11596 9.092 9.09946 9.08101C9.01346 9.02301 8.96746 9.03701 8.92146 9.13301C8.90946 9.15701 8.92446 9.16401 8.93496 9.175C9.18746 9.4275 9.36396 9.73501 9.55596 10.031C9.68596 10.2315 9.82796 10.4225 10.021 10.5675C10.0625 10.5975 10.1055 10.6245 10.1565 10.66C10.0015 10.697 9.87196 10.657 9.74796 10.5875C9.60746 10.5085 9.49246 10.3975 9.38246 10.281C9.15996 10.0435 8.96246 9.78201 8.72946 9.55301C8.71721 9.54109 8.7052 9.52892 8.69346 9.51651C8.61496 9.44401 8.57896 9.44901 8.51446 9.53501C8.49896 9.55351 8.50696 9.56501 8.51746 9.57851C8.77196 9.92601 8.91696 10.3305 9.10296 10.713C9.19946 10.912 9.29946 11.1085 9.47546 11.256C9.40146 11.2755 9.30046 11.2515 9.21196 11.1995C9.07646 11.123 8.97346 11.0115 8.88146 10.889C8.75096 10.717 8.64246 10.5305 8.52896 10.347C8.42694 10.1794 8.31681 10.0169 8.19896 9.86001C8.15046 9.79701 8.11996 9.83051 8.07346 9.85451C8.01596 9.88301 8.03546 9.9135 8.05496 9.953C8.18696 10.2235 8.24646 10.5175 8.32196 10.8065C8.38146 11.031 8.43546 11.2585 8.54196 11.4675C8.58496 11.553 8.63846 11.6315 8.69846 11.7095C8.60671 11.6973 8.52069 11.6579 8.45146 11.5965C8.29446 11.465 8.19846 11.2925 8.11446 11.1105C7.98846 10.837 7.89046 10.551 7.74546 10.286C7.72096 10.2405 7.68996 10.1995 7.66746 10.1525C7.64196 10.1005 7.61546 10.0955 7.55996 10.1185C7.50046 10.144 7.48596 10.164 7.50796 10.228C7.61546 10.528 7.63896 10.8445 7.67546 11.1585C7.70646 11.424 7.72496 11.691 7.83396 11.9405C7.85196 11.9835 7.87396 12.0245 7.89946 12.077C7.80545 12.0439 7.72181 11.9867 7.65696 11.911C7.51746 11.7625 7.44896 11.576 7.39596 11.3835C7.31296 11.0915 7.26096 10.7895 7.15946 10.5035C7.13746 10.443 7.10946 10.386 7.08746 10.3265C7.06396 10.2635 7.02146 10.3055 6.98896 10.3105C6.95996 10.315 6.91446 10.3085 6.92196 10.365C6.97396 10.7265 6.93246 11.0895 6.92696 11.452C6.92346 11.7335 6.93746 12.011 7.04496 12.2805C6.92896 12.239 6.82396 12.1225 6.75996 11.9755C6.67446 11.777 6.65046 11.5655 6.62846 11.3525C6.59946 11.068 6.59296 10.7795 6.54096 10.4965C6.52146 10.3885 6.52296 10.3905 6.41846 10.401C6.38396 10.4035 6.37246 10.4145 6.37246 10.4495C6.37446 10.774 6.32196 11.0945 6.27846 11.415C6.23546 11.725 6.20246 12.0365 6.27496 12.3685C6.1119 12.184 6.00914 11.9541 5.98046 11.7095C5.95046 11.469 5.98796 11.23 6.00396 10.9905C6.01496 10.8165 6.02646 10.643 5.99996 10.4695C5.99296 10.4265 5.97846 10.413 5.93596 10.411C5.79396 10.4015 5.79546 10.4005 5.77146 10.5425C5.72246 10.8425 5.61246 11.123 5.51796 11.4095C5.44046 11.645 5.36746 11.881 5.36496 12.133C5.36446 12.1885 5.36996 12.2455 5.37296 12.3145C5.29762 12.2297 5.24422 12.1277 5.21746 12.0175C5.15846 11.797 5.18446 11.575 5.22246 11.3545C5.27046 11.067 5.34696 10.784 5.36346 10.491L5.36596 10.447C5.36796 10.3375 5.35246 10.321 5.24496 10.314C5.22146 10.3125 5.20846 10.318 5.20196 10.342C5.09996 10.7875 4.85796 11.1735 4.67546 11.5835C4.59896 11.7575 4.53096 11.931 4.52896 12.126C4.44446 11.9925 4.41546 11.8445 4.41546 11.69C4.41546 11.4245 4.50846 11.1795 4.59046 10.934C4.66546 10.7105 4.75146 10.4925 4.79546 10.2595C4.79839 10.244 4.79774 10.228 4.79354 10.2128C4.78934 10.1975 4.78171 10.1835 4.77124 10.1717C4.76077 10.1598 4.74773 10.1506 4.73312 10.1446C4.71851 10.1386 4.70272 10.136 4.68696 10.137C4.66796 10.138 4.66146 10.1505 4.65546 10.1635C4.49546 10.535 4.22296 10.8345 4.00396 11.1685C3.87446 11.3665 3.76346 11.572 3.70496 11.8185C3.65346 11.7065 3.65046 11.5985 3.65196 11.491C3.65396 11.2705 3.72696 11.0685 3.82146 10.8725C3.94746 10.6115 4.10346 10.3675 4.21996 10.1015C4.22396 10.091 4.22996 10.0795 4.23396 10.0675C4.29196 9.912 4.29896 9.96001 4.16046 9.87201C4.13796 9.85701 4.12296 9.86001 4.10696 9.88251C3.86696 10.22 3.54946 10.488 3.28396 10.804C3.13658 10.976 3.01789 11.1707 2.93246 11.3805C2.89346 11.3025 2.88496 11.148 2.90796 11.023C2.94346 10.8275 3.03496 10.658 3.14996 10.5015C3.29846 10.303 3.45396 10.1095 3.60446 9.91301C3.66596 9.83251 3.71796 9.74651 3.76696 9.65951C3.81346 9.57751 3.72296 9.57851 3.69646 9.54151C3.66896 9.50251 3.65196 9.5435 3.63696 9.56001C3.45696 9.76301 3.23796 9.92151 3.01996 10.08C2.80696 10.2345 2.58996 10.382 2.41096 10.577C2.34193 10.656 2.28111 10.7417 2.22946 10.833C2.20196 10.655 2.24196 10.5055 2.31546 10.362C2.39196 10.2115 2.50046 10.0855 2.61846 9.96651C2.83446 9.74601 3.07696 9.55151 3.27896 9.31551L3.29796 9.29351C3.35396 9.22701 3.33796 9.14951 3.26146 9.10701C3.24246 9.09701 3.23396 9.10901 3.22446 9.11751C2.95146 9.34851 2.62546 9.48901 2.31246 9.65201C2.10346 9.76051 1.89846 9.87651 1.73946 10.0575C1.70646 10.0945 1.67596 10.136 1.63696 10.1855C1.62324 10.0859 1.63888 9.98439 1.68196 9.89351C1.76946 9.6925 1.92546 9.55151 2.09996 9.42951C2.31096 9.28301 2.52646 9.1405 2.73746 8.9945C2.82246 8.9365 2.90246 8.87051 2.97196 8.79401C3.02496 8.73451 2.94546 8.70701 2.93346 8.66351C2.92396 8.63251 2.90246 8.63401 2.87546 8.64951C2.59646 8.80951 2.28646 8.89051 1.98496 8.99151C1.73446 9.07551 1.48496 9.15901 1.26846 9.32251C1.22546 9.35551 1.18646 9.392 1.13496 9.43501C1.13968 9.35528 1.1637 9.27789 1.20496 9.20951C1.29696 9.04951 1.43596 8.93701 1.59046 8.84401C1.80446 8.71351 2.03346 8.61201 2.25946 8.50451C2.39596 8.43851 2.52896 8.36751 2.65996 8.28851C2.74846 8.23601 2.66896 8.19001 2.65846 8.14201C2.64746 8.08351 2.60746 8.11451 2.57946 8.12451C2.29596 8.22651 1.99846 8.26101 1.70396 8.31351C1.42846 8.36301 1.15196 8.40601 0.899459 8.53501C0.854959 8.55801 0.810959 8.58551 0.749959 8.61901C0.800459 8.50451 0.864959 8.42301 0.944459 8.35101C1.11546 8.19651 1.32046 8.1055 1.53496 8.03251C1.83146 7.93001 2.13896 7.86251 2.43396 7.75651C2.49496 7.73451 2.51096 7.71351 2.49446 7.64701C2.47396 7.5725 2.45146 7.54951 2.36796 7.55901C2.04996 7.59851 1.73146 7.58601 1.41196 7.59351C1.19896 7.60051 0.985459 7.60701 0.776459 7.66201C0.703459 7.68251 0.632459 7.70701 0.562459 7.74001C0.548459 7.74301 0.542959 7.73701 0.546459 7.72251C0.738959 7.47051 1.01196 7.36651 1.31046 7.31001C1.57696 7.25851 1.85046 7.24951 2.11996 7.20851C2.19396 7.19701 2.26846 7.17851 2.34396 7.16701C2.38096 7.16151 2.39046 7.14501 2.38796 7.10851C2.37996 6.97501 2.38096 6.97601 2.25196 6.97051C1.99235 6.95565 1.73378 6.92627 1.47746 6.88251C1.12896 6.82751 0.779459 6.76751 0.407959 6.86401C0.512459 6.73151 0.634459 6.66251 0.773459 6.61951C1.02446 6.54201 1.28296 6.55901 1.53946 6.56801C1.79246 6.57651 2.04446 6.58551 2.29746 6.56251C2.39946 6.55351 2.35596 6.48101 2.37046 6.43351C2.38796 6.37601 2.34396 6.37601 2.30846 6.37151C1.97746 6.32101 1.66246 6.20901 1.34446 6.11051C1.06296 6.02401 0.777959 5.95301 0.476459 5.97851C0.522959 5.92751 0.641459 5.87351 0.772459 5.83401C1.02096 5.76101 1.27096 5.77551 1.52246 5.81401C1.79946 5.85701 2.07146 5.92451 2.35146 5.93851C2.36769 5.93996 2.38403 5.93754 2.39914 5.93146C2.41426 5.92537 2.42771 5.91578 2.4384 5.90348C2.44909 5.89118 2.4567 5.87652 2.46063 5.86071C2.46455 5.84489 2.46466 5.82837 2.46096 5.81251C2.45646 5.78801 2.43746 5.79001 2.42246 5.78651C2.16396 5.72501 1.93196 5.60501 1.70546 5.47151C1.39696 5.28851 1.06996 5.16801 0.710959 5.13951C0.689459 5.13751 0.668959 5.13301 0.634459 5.12801C0.856549 5.02936 1.10122 4.99273 1.34246 5.02201C1.60096 5.05251 1.83896 5.15351 2.07996 5.24201C2.22646 5.29651 2.37546 5.34601 2.52946 5.37601C2.57296 5.38451 2.59996 5.38051 2.61096 5.33301C2.61743 5.3095 2.62666 5.28684 2.63846 5.26551C2.65046 5.23801 2.64696 5.22301 2.61646 5.21001C2.28496 5.07551 2.01046 4.85151 1.72796 4.64051C1.50796 4.47601 1.27296 4.34201 0.999459 4.28901C0.989959 4.28751 0.979459 4.28551 0.977959 4.27001C1.36296 4.21251 1.73146 4.24451 2.07446 4.44801C2.29796 4.58051 2.51496 4.72451 2.76396 4.80651C2.79946 4.81851 2.83796 4.85001 2.87196 4.79301C2.92346 4.70551 2.92546 4.70751 2.83846 4.65351C2.62843 4.52089 2.44161 4.35468 2.28546 4.16151C2.05046 3.87901 1.77296 3.65651 1.42696 3.52451C1.41846 3.52201 1.41246 3.51451 1.39596 3.50251C1.79796 3.49001 2.14196 3.60651 2.44446 3.85601C2.64696 4.02201 2.84396 4.19701 3.08346 4.31301C3.11246 4.32751 3.14496 4.36401 3.17446 4.34201C3.21246 4.31351 3.24096 4.27001 3.26896 4.23101C3.28346 4.21151 3.26096 4.19951 3.24896 4.19001C2.99896 3.97451 2.81496 3.70451 2.62646 3.43801C2.45296 3.19251 2.24646 2.98301 1.98296 2.83301C1.97496 2.82851 1.96846 2.82201 1.95946 2.81551C2.04046 2.79901 2.16596 2.81801 2.28746 2.85851C2.48646 2.92601 2.65346 3.04401 2.80346 3.18901C3.00146 3.37951 3.17496 3.59501 3.38146 3.77551C3.42896 3.81751 3.48046 3.85701 3.53046 3.89601C3.60196 3.95101 3.61746 3.86251 3.65846 3.84251C3.70446 3.82051 3.66846 3.79551 3.65146 3.77501C3.47546 3.56651 3.35646 3.32501 3.24246 3.08051C3.11596 2.80751 2.97246 2.54651 2.75296 2.33351C2.70996 2.29051 2.66396 2.25051 2.61546 2.20401C2.67646 2.19551 2.72596 2.22151 2.77596 2.23951C3.02596 2.33201 3.21996 2.49501 3.37696 2.70601C3.53796 2.92051 3.67346 3.15151 3.84896 3.35351C3.89896 3.41101 3.95196 3.46601 4.00496 3.52001C4.07046 3.58651 4.10146 3.50101 4.14746 3.48351C4.19496 3.46601 4.15796 3.43601 4.14546 3.41401C3.98196 3.13351 3.89896 2.82251 3.80146 2.51701C3.70946 2.23151 3.57896 1.96851 3.37246 1.74651C3.37196 1.72151 3.38546 1.72251 3.40396 1.73051" fill="#FEFE00"/>
<path fill-rule="evenodd" clip-rule="evenodd" d="M9.36441 6.68601C9.36322 7.54885 9.01948 8.37592 8.40875 8.98544C7.79802 9.59495 6.97026 9.93704 6.10741 9.93651C5.68019 9.93631 5.2572 9.85191 4.86262 9.68813C4.46803 9.52435 4.1096 9.28441 3.80781 8.98201C3.50602 8.67962 3.26679 8.32071 3.1038 7.9258C2.94081 7.53089 2.85726 7.10773 2.85791 6.68051C2.85924 5.81879 3.20231 4.99279 3.81187 4.3837C4.42143 3.77461 5.2477 3.43217 6.10942 3.43151C7.90141 3.42851 9.36591 4.89401 9.36441 6.68601Z" fill="#EC1C24"/>
<path fill-rule="evenodd" clip-rule="evenodd" d="M8.2255 4.8705C8.06 4.871 7.9065 4.8685 7.753 4.882C7.19888 4.92531 6.66234 5.09645 6.1855 5.382C6.132 5.415 6.095 5.415 6.043 5.3755C5.7415 5.152 5.396 5.033 5.033 4.9585C4.79027 4.90939 4.54396 4.87996 4.2965 4.8705C4.209 4.8665 4.1215 4.8695 4.021 4.8695C4.954 3.697 7.026 3.477 8.226 4.8705" fill="#FEFE00"/>
<path fill-rule="evenodd" clip-rule="evenodd" d="M5.27201 5.96151C4.9027 6.29203 4.60009 6.69019 4.38051 7.13451C4.16001 7.58001 4.03601 8.04901 4.05301 8.56251C3.95821 8.47185 3.87507 8.36973 3.80551 8.25851C3.39601 7.63801 3.24851 6.96001 3.36601 6.22551C3.39551 6.04301 3.44451 5.86701 3.51051 5.69451C3.52201 5.66301 3.53201 5.63951 3.57501 5.63951C4.15601 5.63951 4.72451 5.70351 5.26051 5.94901C5.26201 5.94951 5.26251 5.95251 5.27201 5.96151Z" fill="#FEFE00"/>
<path fill-rule="evenodd" clip-rule="evenodd" d="M8.2254 8.5C8.2054 7.4415 7.7459 6.6075 6.9209 5.948C7.0049 5.916 7.0794 5.884 7.1564 5.8575C7.6044 5.701 8.0629 5.6125 8.5399 5.6225C8.6994 5.626 8.7014 5.624 8.7544 5.775C8.9084 6.214 8.9464 6.664 8.8754 7.1235C8.80007 7.61068 8.59643 8.06904 8.2854 8.4515C8.2714 8.469 8.2609 8.4925 8.2254 8.5Z" fill="#FEFE00"/>
<path fill-rule="evenodd" clip-rule="evenodd" d="M6.12501 6.68051C6.27401 6.88851 6.38151 7.10851 6.46351 7.33901C6.66351 7.90301 6.72701 8.48251 6.65651 9.07701C6.64401 9.18351 6.61801 9.28851 6.60101 9.39551C6.59551 9.43451 6.57551 9.44501 6.53901 9.45101C6.29001 9.49101 6.04101 9.48701 5.79101 9.46551C5.71251 9.45851 5.68301 9.42951 5.66651 9.34951C5.54501 8.73501 5.56001 8.12701 5.73251 7.52501C5.81576 7.22375 5.94839 6.93838 6.12501 6.68051Z" fill="#FEFE00"/>
<path fill-rule="evenodd" clip-rule="evenodd" d="M6.65503 6.19901C6.86953 6.35651 7.04803 6.5475 7.20503 6.7585C7.5318 7.19259 7.75065 7.69817 7.84353 8.2335C7.87853 8.427 7.88853 8.622 7.88253 8.8195C7.88103 8.839 7.88253 8.859 7.86353 8.8715C7.77603 8.9335 7.69603 9.007 7.58453 9.0635C7.67103 7.9735 7.25053 7.05851 6.65503 6.19901Z" fill="#FEFE00"/>
<path fill-rule="evenodd" clip-rule="evenodd" d="M4.66802 9.07001C4.56852 9.02501 4.49252 8.95751 4.41152 8.90001C4.39052 8.88501 4.38952 8.86401 4.38952 8.84101C4.36852 7.89851 4.64902 7.07101 5.32752 6.39651C5.40002 6.32401 5.47802 6.25901 5.58702 6.19501C4.94152 7.05701 4.60802 7.99651 4.66802 9.07001Z" fill="#FEFE00"/>
<path fill-rule="evenodd" clip-rule="evenodd" d="M5.88901 6.46001C5.32351 7.35601 5.18601 8.32851 5.30001 9.36551C5.2199 9.33506 5.13957 9.30523 5.05901 9.27601C5.02651 9.26401 5.03701 9.23551 5.03551 9.21401C5.00601 8.82953 5.02753 8.44284 5.09951 8.06401C5.17701 7.63951 5.30401 7.23201 5.52701 6.85951C5.60235 6.72996 5.69673 6.61248 5.80701 6.51101C5.83151 6.49051 5.85351 6.46901 5.88901 6.46001Z" fill="#FEFE00"/>
<path fill-rule="evenodd" clip-rule="evenodd" d="M6.99344 9.342C7.15994 8.301 6.92244 7.358 6.38794 6.4785C6.41144 6.4665 6.42094 6.495 6.43344 6.5075C6.69544 6.775 6.88044 7.09 7.01144 7.4365C7.22744 8.004 7.28394 8.592 7.22994 9.193C7.22544 9.2405 7.21094 9.2695 7.16244 9.2835C7.10894 9.298 7.05644 9.3195 6.99344 9.342Z" fill="#FEFE00"/>
</svg>
