<svg width="56" height="58" viewBox="0 0 56 58" fill="none" xmlns="http://www.w3.org/2000/svg">
<path d="M51.7445 14.2498L51.7457 14.2531C52.581 16.4886 53.0056 18.858 52.9999 21.2848C52.9999 21.2858 52.9999 21.2868 52.9999 21.2878L49.9999 21.2804C49.9999 23.2337 49.6536 25.2691 48.966 27.3398L51.7445 14.2498ZM51.7445 14.2498C50.9392 12.1025 49.7693 10.1319 48.2832 8.45713L51.7445 14.2498ZM49.1043 34.186C50.244 32.2267 51.1677 30.2424 51.8142 28.2821L41.7592 7.1908C40.1063 6.40005 38.3336 5.9953 36.5438 6.00004V3.00004C36.5424 3.00004 36.5411 3.00004 36.5398 3.00004C33.4971 3.00085 30.5527 3.9299 28.0025 5.64524C25.4512 3.92915 22.5053 3.00004 19.4613 3.00004C17.2008 3.00004 15.0074 3.50114 12.9529 4.4837C10.9733 5.42793 9.21356 6.77506 7.72462 8.45404C6.23465 10.1289 5.06324 12.1022 4.25942 14.2529L4.25934 14.2531C3.42371 16.4895 3 18.8575 3 21.2804C3 23.5889 3.4092 25.9435 4.18678 28.2852L4.18724 28.2866C4.8364 30.2384 5.75254 32.2209 6.89561 34.186L6.89645 34.1875C8.70696 37.2961 11.154 40.4684 14.1233 43.6255C18.8732 48.6774 23.5729 52.2166 24.139 52.6288L25.339 53.5152L25.3449 53.5195C26.9366 54.6893 29.0633 54.6893 30.6551 53.5195L30.661 53.5152L31.8675 52.624C31.8676 52.6239 31.8678 52.6237 31.868 52.6236C32.1356 52.426 36.9702 48.8383 41.8759 43.6263L41.8767 43.6255C44.8459 40.4684 47.293 37.2961 49.1035 34.1875L49.1043 34.186ZM48.2821 8.45589C46.7982 6.78097 45.0267 5.42499 43.0518 4.48355L48.2821 8.45589Z" stroke="white" stroke-width="6"/>
</svg>
