<svg width="63" height="65" viewBox="0 0 63 65" fill="none" xmlns="http://www.w3.org/2000/svg">
<path d="M27.593 0C42.8326 0 55.1881 12.4395 55.1881 27.7852C55.1881 33.2378 53.6289 38.3241 50.9341 42.6155C50.9539 42.6242 50.9733 42.632 50.9931 42.641L63 54.7295L52.8006 65L40.3613 52.4719C40.365 52.4542 40.37 52.4366 40.3739 52.4189C36.5528 54.4333 32.2048 55.5727 27.5929 55.5727C12.3533 55.5727 0 43.1311 0 27.7853C0.000160217 12.4395 12.3535 0 27.593 0ZM27.593 12.3433C19.124 12.3433 12.2602 19.2571 12.2602 27.7852C12.2602 36.3133 19.124 43.2271 27.593 43.2271C36.0621 43.2271 42.928 36.3133 42.928 27.7852C42.928 19.2571 36.0621 12.3433 27.593 12.3433Z" fill="#2D2D2D"/>
</svg>
