<svg width="56" height="58" viewBox="0 0 56 58" fill="none" xmlns="http://www.w3.org/2000/svg">
<path d="M42 17.3492C42 9.51098 35.822 3 28 3C20.178 3 14 9.51098 14 17.3492C14 22.4136 16.5791 26.924 20.5144 29.482C17.0368 30.3596 13.8142 31.7959 11.1212 33.5703C6.72842 36.4649 3 40.799 3 45.7222C3 47.5209 3.90719 48.8942 4.935 49.8221C5.92105 50.7123 7.16024 51.3385 8.35498 51.8007C10.7602 52.7313 13.7974 53.2993 16.6163 53.6629C19.4809 54.0323 22.3228 54.2146 24.4337 54.3054C25.493 54.3509 26.3772 54.3738 26.9994 54.3852C27.3107 54.391 27.5569 54.3939 27.7271 54.3953C27.8123 54.3961 27.8785 54.3964 27.9244 54.3966L27.9779 54.3968L27.9929 54.3968L27.9975 54.3968H27.999C27.9995 54.3968 28 54.3968 28 51.3968C28 54.3968 28.0005 54.3968 28.001 54.3968H28.0025L28.0071 54.3968L28.0221 54.3968L28.0756 54.3966C28.1215 54.3964 28.1877 54.3961 28.2729 54.3953C28.4431 54.3939 28.6893 54.391 29.0006 54.3852C29.6228 54.3738 30.507 54.3509 31.5663 54.3054C33.6772 54.2146 36.5191 54.0323 39.3837 53.6629C42.2026 53.2993 45.2398 52.7313 47.645 51.8007C48.8398 51.3385 50.0789 50.7123 51.065 49.8221C52.0928 48.8942 53 47.5209 53 45.7222C53 40.799 49.2716 36.4649 44.8788 33.5703C42.1858 31.7959 38.9632 30.3596 35.4856 29.482C39.4209 26.924 42 22.4136 42 17.3492Z" stroke="white" stroke-width="6"/>
</svg>
