<svg width="56" height="58" viewBox="0 0 56 58" fill="none" xmlns="http://www.w3.org/2000/svg">
<path d="M48 14.3492H42.3289C41.2319 7.73251 35.0089 3 28 3C20.9911 3 14.7681 7.73251 13.6711 14.3492H8C5.51611 14.3492 3 16.2378 3 19.1651V49.581C3 52.5083 5.51612 54.3968 8 54.3968H48C50.4839 54.3968 53 52.5083 53 49.581V19.1651C53 16.2378 50.4839 14.3492 48 14.3492ZM24.8835 14.3492C25.5722 13.6123 26.6397 13.0857 28 13.0857C29.3603 13.0857 30.4278 13.6123 31.1165 14.3492H24.8835Z" stroke="white" stroke-width="6"/>
</svg>
